Format;AVI

File Size:1.06gb

Video:ID : 0
Format : MPEG-4 Visual
Format profile : Advanced Simple@L5
Format settings, BVOP : Yes
Format settings, QPel : No
Format settings, GMC : No warppoints
Format settings, Matrix : Custom
Codec ID : XVID
Codec ID/Hint : XviD
Duration : 1h 39mn
Bit rate : 765 Kbps
Width : 720 pixels
Height : 304 pixels
Display aspect ratio : 2.35:1
Frame rate : 29.970 fps
Color space : YUV
Chroma subsampling : 4:2:0
Bit depth : 8 bits
Scan type : Progressive
Bits/(Pixel*Frame) : 0.117
Stream size : 544 MiB (76%)
Writing library : XviD 1.2.1 (UTC 2008-12-04)

Audio:ID : 1
Format : AC-3
Format/Info : Audio Coding 3
Mode extension : CM (complete main)
Codec ID : 2000
Duration : 1h 39mn
Bit rate mode : Constant
Bit rate : 224 Kbps
Channel(s) : 2 channels
Channel positions : Front: L R
Sampling rate : 48.0 KHz
Bit depth : 16 bits
Stream size : 159 MiB (22%)
Alignment : Aligned on interleaves
Interleave, duration : 33 ms (1.00 video frame)
Interleave, preload duration : 512 ms

Duration:1:39

Release Date:2011

Language:English
 
http://www.imdb.com/title/tt1289397/

Since closing the door to a violent past, quiet and thoughtful Moses Stanton everyday existence is running a small neighborhood store, and watching over his daughter who doesn't know he exists. When a young man, Malik, comes in claiming to be a black Muslim that is doing good for the neighborhood, Moses takes him on as a partner but soon realizes that Malik is nothing but a drug dealer seeking to destroy the neighborhood and Moses's daughter. Therefore, Moses must become the man he used to be in order to save his beloved neighborhood and his daughter.
 
http://www.grinshare.com/img/T63JJ7.png
 
http://www.grinshare.com/img/F3AONQ.png
 
http://www.grinshare.com/img/JV5IFJ.png
 
http://www.grinshare.com/img/64IWU0.png
 
http://www.grinshare.com/img/UQRTQ4.png
 
http://www.grinshare.com/img/RWFAYJ.png